/* XPM */
static char *_5711_dab8d0144918ee3e5b5cad62035fa8d992217e9d6329effe2b05b8f75d11cf15[] = {
/* columns rows colors chars-per-pixel */
"218 72 2 1 ",
"  c white",
". c None",
/* pixels */
"..........................................................................................................................................................................................................................",
"..........................................................................................................................................................................................................................",
"..........................................................................................................................................................................................................................",
"..........................................................................................................................................................................................................................",
"..........................................................................................................................................................................................................................",
"..........................................................................................................................................................................................................................",
"..........................................................................................................................................................................................................................",
"..........................................................................................................................................................................................................................",
"..........................................................................................................................................................................................................................",
"..........................................................................................................................................................................................................................",
"..........................................................................................................................................................................................................................",
"..........................................................................................................................................................................................................................",
"..........................................................................................................................................................................................................................",
"..........................................................................................................................................................................................................................",
"..........................................................................................................................................................................................................................",
"..........................................................................................................................................................................................................................",
"..........................................................................................................................................................................................................................",
"..........................................................................................................................................................................................................................",
"..........................................................................................................................................................................................................................",
"..........................................................................................................................................................................................................................",
"..........................................................................................................................................................................................................................",
"..........................................................................................................................................................................................................................",
"..........................................................................................................................................................................................................................",
"..........................................................................................................................................................................................................................",
"..........................................................................................................................................................................................................................",
"..........................................................................................................................................................................................................................",
"..........................................................................................................................................................................................................................",
"...............................        ...................................................................................................................................................................................",
"............................    ......    .................................................... .... ..             .................................... .. .. ............... .. .. ......................................",
"...........................  ............   .................................................. .  . .             .....................................  . .. ..............  .  .  ......................................",
"..........................  ..           ..  ................................................. .  . .  ................................................  .. .  ............. .. .   ......................................",
".........................  .   .........   ................................................... .  . .              ....................................   .  . ............  .  .   ......................................",
"......................... .. ...       ...  ....  . .  . ......... .  . .  ... .. . .. ....... .  . .  ............... .. . .. ........ . .. . ........ . .. .  ........... .. .  . ...  . .. . ..........................",
"........................ .. ..   .....   .......  . .  . ......... .  . .  ... .  . .  ....... .  . .              ... .. . .. ........ . .. . ........ .  .  . ..........  . .. .. ...  . .  . ..........................",
"........................ .  .  .................  . .  . ......... .  . .  ... .  . .  ....... .  . .  ............... .. . .. ........ . .. . ........ .. .. .. ......... .. .  .. ...  . .  . ..........................",
"........................ . .. ..        ........  . .  . ......... .  . .  ... .  . .  ....... .  . .  ............... .. . .. ........ . .. . ........ ..  .  . ........  . .. ... ...  . .  . ..........................",
"........................ . .. .  ...............  . .  . ......... .  . .  ... .  . .  ....... .  . .  ............... .. . .. ........ . .. . ........ . . .. .. ....... .  .  . . ...  . .  . ..........................",
"........................ . .. . ................  . .  . ......... .  . .  ... .  . .  ....... .  . .  ............... .. . .. ........ . .. . ........ . .  .  .  ..... .. .. .  . ...  . .  . ..........................",
"........................ . .. .       ..........  . .  . ......... .  . .  ... .  . .  ....... .  . .  ............... .. . .. ........ . .. . ........ . .. .. .. ..... .  .  .  . ...  . .  . ..........................",
"........................ .  . ...        .......  . .  . ......... .  . .  ... .  . .  ....... .  . .  ............... .. . .. ........ . .. . ........ . ..  .  .  ... .. .. ..  . ...  . .  . ..........................",
"........................ .. ..  ........  ......  . .  . ......... .  . .  ... .  . .  ....... .  . .  ............... .. . .. ........ . .. . ........ . ... .. .. ..  .  .  ..  . ...  . .  . ..........................",
"........................  .  ..        ..  .....  . .  .           .  . .  ... .  . .  ....... .  . .              ... .. . .. ........ . .. . ........ . .. . .  .  . .. .. . .  . ...  . .  . ..........................",
"......................... ..  ........   .  ....  . .  . ......... .  . .  ... .  . .  ....... .  . .  ............... .. . .. ........ . .. . ........ . .. . .. .. . .  .  . .  . ...  . .  . ..........................",
".......................... ..        ...  .  ...  . .  .           .  . .  ... .  . .  ....... .  . .             .... .. . .. ........ . .. . ........ . .. .. .  .  .. .. .. .  . ...  . .  . ..........................",
"..........................   ....      .. .. ...  . .  .           .  . .  ... .  . .  ....... .  . .             .... .. . .. ........ . .. . ........ . .. ..  . .. .  .  .. .  . ...  . .  . ..........................",
"............................   .......  .  . ...  . .  . ......... .  . .  ... .  . .  ....... .  . .  ............... .. . .. ........ . .. . ........ . .. ... .  .  ... ... .  . ...  . .  . ..........................",
"..............................       .. .. . ...  . .  .           .  . .  ... .  . .  ....... .  . .              ... .. . .. ........ . .. . ........ . .. . .  . .. .. .  . .  . ...  . .  . ..........................",
"....................................  .  . .  ..  . .  . ......... .  . .  ... .  . .  ....... .  . .  ............... .. .  . .......  . .. . ........ . .. . .. .. .    .  . .  . ...  . .  . ..........................",
"..................................... .  . .  ..  . .  . ......... .  . .  ... .  . .  ....... .  . .  ...............  . .. .  ...... .. .  . ........ . .. . ..  . ..  ..  . .  . ...  . .  . ..........................",
"..............................   ..   . .. . ...  . .  . ......... .  . .  ... .  . .  ....... .  . .  ................ .  .  .   .   .. .. .. ........ . .. . ......... ..  . .  . ...  . .  . ..........................",
"...............................     ... .  . ...  . .  . ......... .  . .  ... .  . .  ....... .  . .  ................ .. .. ...   ...  .  .  ........ . .. . ............  . .  . ...  . .  . ..........................",
"...........................   .......  .. .. ...  . .  . ......... .  . .  ... .  . .  ....... .  . .  ................  .  ..  .....   .. .. ......... . .. . ............  . .  . ...  . .  . ..........................",
".......................... ..         ..  .  ...  . .  . ......... .  . .  ... .  . .  ....... .  . .  .................  .  ..       ... ..  ......... . .. . ............  . .  . ...  . .  . ..........................",
"..........................  ...........  .. ....  . .  . ......... .  . .  ... .  . .  ....... .  . .  .................. ..  .........  ..  .......... . .. . ............  . .  . ...  . .  . ..........................",
".......................  ...     ..     .. .....  . .  . ......... .  . .  ... .  . .  ....... .  . .  ................... ...    ..    ..  ........... . .. . ............  . .  . ...  . .  . ..........................",
"........................   ....      ...   .....  . .  . ......... .  . .  ... .  . .  ....... .  . .  ....................  ...     ....  ............ . .. . ............  . .  . ...  . .  . ..........................",
"..........................    ........   .......  . .  . ......... .  . .  ... .  . .  ....... .  . .  .....................   .......   .............. . .. . ............  . .  . ...  . .  . ..........................",
".............................          .......................................................................................         ...................................................................................",
"..........................................................................................................................................................................................................................",
"..........................................................................................................................................................................................................................",
"..........................................................................................................................................................................................................................",
"..........................................................................................................................................................................................................................",
"..........................................................................................................................................................................................................................",
"..........................................................................................................................................................................................................................",
"..........................................................................................................................................................................................................................",
"..........................................................................................................................................................................................................................",
"..........................................................................................................................................................................................................................",
"..........................................................................................................................................................................................................................",
"..........................................................................................................................................................................................................................",
"..........................................................................................................................................................................................................................",
"..........................................................................................................................................................................................................................",
".........................................................................................................................................................................................................................."
};
